<?xml version="1.0" encoding="utf-8"?>
<!-- Generator: Adobe Illustrator 27.3.1, SVG Export Plug-In . SVG Version: 6.00 Build 0)  -->
<svg version="1.1" id="Black_Horizontal_x0A__x0A__1_"
	 xmlns="http://www.w3.org/2000/svg" xmlns:xlink="http://www.w3.org/1999/xlink" x="0px" y="0px" viewBox="0 0 868 210"
	 style="enable-background:new 0 0 868 210;" xml:space="preserve">
<g>
	<g>
		<path d="M150.84,1.81c5.73-1.04,11.8-0.61,17.2,1.7c9.08,3.7,15.96,12.21,17.8,21.83c1.11,6.23,0.57,12.86-2.13,18.63
			c-1.66,3.13-4.58,5.27-6.87,7.89c-4.59,5.29-9.45,10.6-12.12,17.18c-4.44,12.26-0.77,26.6,8.04,35.98
			c5.01,3.78,9.47,8.59,11.62,14.59c3.96,10.15,2.07,22.46-5.15,30.71c-8,9.79-22.58,13.15-34.13,8.1
			c-7.71-3.23-13.88-9.91-16.54-17.83c-3.49-10.09-1.33-22.04,5.87-30c2.4-3.01,5.99-4.75,8.35-7.78c5.45-6.93,9.73-15.55,8.9-24.6
			c-0.67-7.62-5.33-14.08-10.19-19.67c-2.4-2.92-5.55-5.13-7.9-8.1c-6.97-8.45-8.57-20.81-4.34-30.86
			C132.94,10.58,141.28,3.65,150.84,1.81z"/>
		<path d="M210.91,49.44c5.55-1,11.41-0.65,16.68,1.48c9.33,3.58,16.45,12.22,18.33,22.02c1.11,6.23,0.57,12.85-2.12,18.62
			c-1.57,3.01-4.34,5.09-6.58,7.58c-4.7,5.38-9.68,10.78-12.42,17.49c-3.11,8.67-2.31,18.62,1.8,26.83
			c2.11,4.02,4.43,8.16,8.23,10.84c7.2,5.52,11.69,14.46,11.62,23.57c0.22,7.61-2.64,15.25-7.82,20.84
			c-5.41,6.01-13.4,9.69-21.5,9.62c-7.99,0.25-15.97-3.08-21.52-8.82c-5.62-5.66-8.81-13.66-8.56-21.64
			c-0.07-9.28,4.57-18.4,12.04-23.88c3.19-2.22,5.33-5.53,7.39-8.74c3.96-6.39,6.41-14.09,5-21.64c-1.3-6.52-5.27-12.09-9.53-17.03
			c-2.47-3.11-5.79-5.41-8.26-8.51c-6.84-8.3-8.52-20.37-4.56-30.32C192.68,58.5,201.16,51.32,210.91,49.44z"/>
		<path d="M89.91,50.08c11.99-3.08,25.4,2.27,31.98,12.75c4.55,6.98,5.87,15.86,3.92,23.93c-0.75,2.81-1.65,5.71-3.68,7.88
			c-6.22,6.51-12.73,13.08-16.67,21.28c-3.69,8.9-2.89,19.4,1.37,27.96c2.06,3.82,4.21,7.84,7.8,10.46
			c4.93,3.73,8.74,8.95,10.61,14.86c3.11,9.66,1.2,20.9-5.38,28.7c-5.63,7-14.62,11.19-23.63,10.8
			c-12.21,0.03-23.61-8.62-27.39-20.13c-3.27-9.59-1.54-20.84,4.86-28.76c2.27-3.14,5.6-5.2,8.37-7.83
			c5.5-6.48,9.79-14.51,10.07-23.16c0.15-7.99-4.23-15.17-9.28-21.02c-2.81-3.73-6.76-6.37-9.55-10.1
			c-4.2-5.51-6.36-12.51-6.03-19.42C67.38,65.21,77.17,52.98,89.91,50.08z"/>
		<path d="M273.1,99.21c5.56-1.32,11.53-1.16,16.97,0.64c9.21,2.92,16.72,10.55,19.68,19.72c2.73,8.32,1.9,17.8-2.42,25.45
			c-3.68,6.45-9.67,11.66-16.75,14.04c-10.06,3.54-21.96,1.44-30-5.63c-7.11-5.99-11.27-15.3-10.89-24.6
			C249.61,115.17,259.79,102.28,273.1,99.21z"/>
		<path d="M28.26,99.7c8.54-1.12,17.55,1.31,24.07,7.01c6.86,5.76,11.03,14.61,10.95,23.58c0.25,8.32-3.11,16.65-9.01,22.5
			c-5.64,5.77-13.69,9.18-21.77,9.02c-8.27,0.18-16.49-3.39-22.16-9.39c-6.06-6.18-9.2-14.99-8.62-23.61
			C2.14,114.41,13.95,101.43,28.26,99.7z"/>
	</g>
	<g>
		<path d="M386.08,144.87h-13.13V77.2h13.13V144.87z"/>
		<path d="M482.62,144.87h-12.87l-30.57-47.51v47.51H426.3V77.11h14.74l28.71,44.21V77.11h12.87V144.87z"/>
		<path d="M584.85,132.67c-6.78,8.22-16.69,13.47-28.29,13.47c-20.07,0-36.25-15.58-36.25-35.15c0-19.65,16.17-35.15,36.25-35.15
			c11.6,0,21.6,5.34,28.03,13.13l-9.06,9.31c-4.15-6.01-11.1-9.99-18.97-9.99c-12.62,0-23.04,10.33-23.04,22.7
			c0,12.2,10.42,22.61,23.04,22.61c8.38,0,14.82-4.15,19.14-10.33L584.85,132.67z"/>
		<path d="M632.27,144.87h-13.13V77.2h13.13V144.87z"/>
		<path d="M717.73,127.08c0,10.08-9.23,19.06-22.28,19.06c-11.69,0-18.21-2.63-26.34-9.15l9.32-9.4c5.42,4.49,10.33,6.18,16.43,6.18
			c5,0,9.06-3.05,9.06-7.03c0-4.32-2.63-6.44-13.89-10.5c-9.91-3.64-18.89-8.89-18.89-20.83c0-11.6,9.82-19.65,22.19-19.65
			c10.42,0,17.11,2.79,22.61,7.96l-9.15,9.23c-3.39-3.3-7.37-5.08-13.04-5.08c-5.08,0-9.06,3.39-9.06,7.2
			c0,4.32,3.3,6.78,13.89,10.59C712.13,110.39,717.73,116.49,717.73,127.08z"/>
		<path d="M767.69,144.87h-13.13V77.2h13.13V144.87z"/>
		<path d="M866.36,77.11l-25.66,67.76h-12.03l-26.25-67.76h14.57l17.62,47.6l17.36-47.6H866.36z"/>
	</g>
</g>
</svg>
